<?xml version="1.0" encoding="UTF-8"?>
<svg width="84px" height="84px" viewBox="0 0 84 84" version="1.1" xmlns="http://www.w3.org/2000/svg" xmlns:xlink="http://www.w3.org/1999/xlink">
    <!-- Generator: Sketch 47.1 (45422) - http://www.bohemiancoding.com/sketch -->
    <title>check@1x</title>
    <desc>Created with Sketch.</desc>
    <defs></defs>
    <g id="Page-1" stroke="none" stroke-width="1" fill="none" fill-rule="evenodd">
        <g id="Sacola---Forma-Pag-2" transform="translate(-58.000000, -493.000000)" fill-rule="nonzero">
            <g id="check" transform="translate(60.000000, 495.000000)">
                <circle id="Oval" stroke="#D9D9D9" stroke-width="4" fill="#F4F4F4" cx="40" cy="40" r="40"></circle>
                <path d="M36.9579219,79.886052 C37.9620605,79.9615624 38.9765414,80 40,80 C61.9009232,80 79.6908814,62.3988664 79.9960151,40.5704587 L65.9667969,25.3144531 L13.0830078,53.9321289 L36.9579219,79.886052 Z" id="Combined-Shape" fill-opacity="0.15" fill="#000000"></path>
                <g id="Group-8" transform="translate(13.000000, 24.000000)">
                    <g id="Group-7">
                        <rect id="Rectangle-path" fill="#324A5E" x="17.6564171" y="3.14419992" width="35.319577" height="27.0192308"></rect>
                        <rect id="Rectangle-path" fill="#F1543F" x="0" y="3.14227341" width="17.6593069" height="27.0192308"></rect>
                        <g id="Group" transform="translate(35.058352, 14.452694) rotate(-180.000000) translate(-35.058352, -14.452694) translate(17.058352, 0.452694)">
                            <rect id="Rectangle-path" fill="#FFFFFF" x="0.0823580831" y="0.215768545" width="35.319577" height="27.0192308"></rect>
                            <rect id="Rectangle-path" fill-opacity="0.15" fill="#000000" x="0.0823580831" y="6.08775538" width="35.319577" height="15.2771836"></rect>
                        </g>
                        <rect id="Rectangle-path" fill="#FC6F58" x="0" y="1.21576855" width="17.6593069" height="27.0192308"></rect>
                        <rect id="Rectangle-path" fill="#324A5E" x="30.1136364" y="25.2424242" width="20.8698272" height="1"></rect>
                        <rect id="Rectangle-path" fill="#324A5E" x="38.4469697" y="4.59848485" width="12.5511792" height="1"></rect>
                        <g id="Group" transform="translate(19.265049, 10.873337)" fill="#FFFFFF">
                            <rect id="Rectangle-path" x="19.785205" y="6.65607432" width="11.764202" height="2.82329288"></rect>
                            <rect id="Rectangle-path" x="0.14256136" y="0.0481626217" width="31.4058824" height="1"></rect>
                            <rect id="Rectangle-path" x="0.14256136" y="3.11130536" width="31.4058824" height="1"></rect>
                            <rect id="Rectangle-path" x="0.14256136" y="6.1744481" width="15.7029412" height="1"></rect>
                        </g>
                        <g id="Group" transform="translate(2.167318, 11.354964)" fill="#FFFFFF">
                            <rect id="Rectangle-path" x="0.028897573" y="12.252571" width="13.267839" height="1"></rect>
                            <rect id="Rectangle-path" x="0.028897573" y="9.18942822" width="13.267839" height="1"></rect>
                            <rect id="Rectangle-path" x="0.028897573" y="6.13013849" width="13.267839" height="1"></rect>
                            <rect id="Rectangle-path" x="0.028897573" y="3.06892225" width="13.267839" height="1"></rect>
                            <rect id="Rectangle-path" x="0.028897573" y="0.00963252434" width="13.267839" height="1"></rect>
                        </g>
                    </g>
                </g>
                <circle id="Oval-Copy-2" stroke="#D9D9D9" stroke-width="4" cx="40" cy="40" r="40"></circle>
            </g>
        </g>
    </g>
</svg>