<?xml version="1.0" encoding="UTF-8"?>
<svg width="84px" height="84px" viewBox="0 0 84 84" version="1.1" xmlns="http://www.w3.org/2000/svg" xmlns:xlink="http://www.w3.org/1999/xlink">
    <!-- Generator: Sketch 47.1 (45422) - http://www.bohemiancoding.com/sketch -->
    <title>@1xcredit-card copy</title>
    <desc>Created with Sketch.</desc>
    <defs></defs>
    <g id="Page-1" stroke="none" stroke-width="1" fill="none" fill-rule="evenodd">
        <g id="Sacola---Forma-Pag-Parcelado" transform="translate(-138.000000, -87.000000)" fill-rule="nonzero">
            <g id="credit-card-copy" transform="translate(140.000000, 89.000000)">
                <circle id="Oval" stroke="#D9D9D9" stroke-width="4" fill="#F4F4F4" cx="40" cy="40" r="40"></circle>
                <path d="M78.7735938,49.8620313 L65.6278125,36.740625 L63.4923438,38.8903125 L47.7921875,23.3473438 L21.5215625,40.286875 L21.5040625,40.269375 L14.461875,43.3503125 L49.718125,78.8085938 C63.9534375,75.2554688 75.1690625,64.0770313 78.7735938,49.8620313 Z" id="Shape" fill-opacity="0.15" fill="#000000"></path>
                <path d="M45.0954688,44.444375 L17.1270312,44.444375 C15.031875,44.444375 13.3335938,42.7460938 13.3335938,40.6509375 L13.3335938,26.015625 C13.3335938,23.9204688 15.031875,22.2221875 17.1270312,22.2221875 L45.0957813,22.2221875 C47.1909375,22.2221875 48.8892188,23.9204688 48.8892188,26.015625 L48.8892188,40.6510938 C48.8892188,42.7460938 47.190625,44.444375 45.0954688,44.444375 Z" id="Shape" fill="#FC6F58"></path>
                <path d="M45.0954687,22.2221875 L31.2907812,22.2221875 L31.2907812,44.444375 L45.0954687,44.444375 C47.190625,44.444375 48.8889063,42.7460938 48.8889063,40.6509375 L48.8889063,26.015625 C48.8892188,23.9204688 47.190625,22.2221875 45.0954687,22.2221875 Z" id="Shape" fill="#F1543F"></path>
                <path d="M62.8732812,57.7778125 L34.9048437,57.7778125 C32.8096875,57.7778125 31.1114062,56.0795312 31.1114062,53.984375 L31.1114062,39.3489062 C31.1114062,37.25375 32.8096875,35.5554688 34.9048437,35.5554688 L62.8735937,35.5554688 C64.96875,35.5554688 66.6670312,37.25375 66.6670312,39.3489062 L66.6670312,53.984375 C66.666875,56.0795312 64.9682813,57.7778125 62.8732812,57.7778125 Z" id="Shape" fill="#FFFFFF"></path>
                <path d="M62.8732812,35.555625 L48.1257813,35.555625 L48.1257813,57.7778125 L62.8732812,57.7778125 C64.9684375,57.7778125 66.6667188,56.0795313 66.6667188,53.984375 L66.6667188,39.3489063 C66.666875,37.2539063 64.9682813,35.555625 62.8732812,35.555625 Z" id="Shape" fill="#F4F4F4"></path>
                <rect id="Rectangle-path" fill="#324A5E" x="31.1110937" y="41.6160937" width="35.555625" height="5.6565625"></rect>
                <rect id="Rectangle-path" fill="#2B3B4E" x="48.1265625" y="41.6160937" width="18.5409375" height="5.6565625"></rect>
                <circle id="Oval" fill="#FFFFFF" cx="20" cy="28.8889063" r="2.2221875"></circle>
                <circle id="Oval" fill="#FFFFFF" cx="24.444375" cy="28.8889063" r="2.2221875"></circle>
            </g>
        </g>
    </g>
</svg>