<?xml version="1.0" encoding="UTF-8"?>
<svg width="84px" height="84px" viewBox="0 0 84 84" version="1.1" xmlns="http://www.w3.org/2000/svg" xmlns:xlink="http://www.w3.org/1999/xlink">
    <!-- Generator: Sketch 47.1 (45422) - http://www.bohemiancoding.com/sketch -->
    <title>gift-card@1x</title>
    <desc>Created with Sketch.</desc>
    <defs></defs>
    <g id="Page-1" stroke="none" stroke-width="1" fill="none" fill-rule="evenodd">
        <g id="Sacola---Forma-Pag-1" transform="translate(-58.000000, -493.000000)">
            <g id="gift-card" transform="translate(60.000000, 495.000000)">
                <circle id="Oval" stroke="#D9D9D9" stroke-width="4" fill="#F4F4F4" fill-rule="nonzero" cx="40" cy="40" r="40"></circle>
                <path d="M34.1717777,79.5784559 C36.074346,79.8561931 38.0203791,80 40,80 C57.1545832,80 71.7869678,69.2011842 77.4701287,54.0305777 L59.8149414,29.3032227 L20.0917969,57.8476562 L34.1717777,79.5784559 Z" id="Combined-Shape" fill-opacity="0.15" fill="#000000" fill-rule="nonzero"></path>
                <g id="Group-2" transform="translate(20.000000, 21.000000)">
                    <path d="M38.5303444,8.05718257 L35.2531992,8.05718257 C34.9850705,8.73006639 34.5898548,9.35115353 34.0804025,9.8919834 C34.0398008,9.93518672 33.9998299,9.97854772 33.9577303,10.0206473 C32.8585685,11.1202822 31.3952531,11.7261535 29.8374108,11.7267842 C29.8369378,11.7267842 28.0952185,11.7266528 24.6122531,11.72639 L28.3034564,15.4175145 C29.0198589,16.133917 29.0200166,17.2957552 28.3034564,18.0122365 C27.9452158,18.3706349 27.4755768,18.549834 27.0061743,18.549834 C26.5367718,18.549834 26.0669751,18.3706349 25.7088921,18.0123942 L20.1842282,12.4881245 L25.7088921,18.0123942 L20.1825726,12.4863112 L14.656332,18.0123154 C14.2980913,18.370556 13.8283734,18.5497552 13.3590498,18.5497552 C13.2416598,18.5497552 13.1243485,18.5384813 13.0086141,18.516249 C12.9507469,18.5049751 12.8933527,18.4910207 12.836668,18.4741494 C12.5530083,18.3901079 12.2855892,18.2362158 12.0616888,18.0122365 C11.9273485,17.8778963 11.8181577,17.7278672 11.7342739,17.5680622 C11.7062863,17.5147676 11.6810581,17.4604481 11.658668,17.4052614 C11.613888,17.2948091 11.5802241,17.1809668 11.5579129,17.0652324 C11.4907427,16.7183444 11.5244066,16.3556888 11.658668,16.0244108 C11.7482282,15.8035062 11.8826473,15.596556 12.0616888,15.4174357 L15.7524979,11.7267054 L12.1389502,11.7267054 L10.5301784,11.7268631 C8.96973444,11.7260747 7.50634025,11.1202822 6.40678423,10.020332 C6.36468465,9.97823237 6.32518672,9.93479253 6.28474274,9.89190456 C6.22025311,9.82339419 6.1576556,9.75378008 6.09710788,9.6829834 C5.97601245,9.5413112 5.86264315,9.3953029 5.75715768,9.24543154 C5.65175104,9.09548133 5.55422822,8.94174689 5.46458921,8.78462241 C5.37495021,8.62741909 5.29319502,8.46706224 5.21932365,8.30378838 C5.18234855,8.22219087 5.14750207,8.13988382 5.11446888,8.05694606 L1.83480083,8.05694606 C0.821493776,8.05718257 0,8.87867635 0,9.8919834 L0,25.6186224 L0,36.102917 C0,37.1163029 0.821493776,37.9377178 1.83480083,37.9377178 L20.1841494,37.9377178 L38.5303444,37.9377178 C39.5436515,37.9377178 40.3651452,37.1163817 40.3651452,36.102917 L40.3651452,25.6186224 L40.3651452,9.8919834 C40.3651452,8.87867635 39.5436515,8.05718257 38.5303444,8.05718257 Z" id="Shape" fill="#F1543F" fill-rule="nonzero"></path>
                    <path d="M6.40678423,10.0204108 C7.50634025,11.1202822 8.96973444,11.7261535 10.5275768,11.7267842 C10.528444,11.7267842 10.5301784,11.7269419 10.5301784,11.7269419 L12.1389502,11.7267842 L15.7527344,11.7266266 L15.7524979,11.7267842 L12.0616888,15.4175145 C11.3452863,16.133917 11.3451286,17.2957552 12.0616888,18.0122365 C12.4199295,18.3706349 12.8895685,18.549834 13.358971,18.549834 C13.8284523,18.549834 14.2981701,18.3706349 14.6562531,18.0123942 L20.1825726,12.4863112 L25.7088133,18.0123154 C26.0670539,18.370556 26.5366929,18.5497552 27.0062531,18.5497552 C27.4758133,18.5497552 27.9454523,18.370556 28.3035353,18.0121577 C29.0200954,17.2957552 29.0199378,16.133917 28.3035353,15.4174357 L24.6127261,11.7267054 L24.612332,11.7263112 L29.7813568,11.7263112 L29.8261369,11.7267054 L29.8352822,11.7268631 C29.8354398,11.7268631 29.8367801,11.7267054 29.8374896,11.7267054 C31.3952531,11.7260747 32.8584896,11.1202822 33.9578091,10.0205685 C33.9999087,9.97846888 34.0398797,9.93502905 34.0804813,9.89190456 C34.5899336,9.35115353 34.9851494,8.72998755 35.253278,8.05710373 C35.5236929,7.37846473 35.6666266,6.6483444 35.6666266,5.89583402 C35.6666266,4.3379917 35.0599668,2.87294191 33.9580456,1.77086307 C32.8562033,0.669020747 31.3914689,0.0622033195 29.8333112,0.0622033195 C28.2752324,0.0622033195 26.8103402,0.669020747 25.7087344,1.77086307 L20.1825726,7.29686722 L14.6564896,1.77102075 C13.554805,0.669178423 12.0899129,0.0623609959 10.5319129,0.0623609959 C8.97391286,0.0623609959 7.50917842,0.6693361 6.40686307,1.77125726 C4.71058091,3.46801245 4.28043983,5.95772199 5.11446888,8.05718257 C5.37794606,8.72052697 5.76866805,9.34413693 6.28458506,9.8919834 C6.32518672,9.93487137 6.36476349,9.9783112 6.40678423,10.0204108 Z M28.3036929,4.36574274 C28.71239,3.9569668 29.2555851,3.73188382 29.83339,3.73188382 C30.411195,3.73188382 30.9544689,3.9569668 31.3630871,4.36574274 C31.7720207,4.77451867 31.9971037,5.31802905 31.9971037,5.89591286 C31.9971037,6.47379668 31.7720207,7.01707054 31.3630083,7.42584647 C30.9564398,7.83265145 30.4142697,8.05678838 29.8364647,8.05710373 C29.8360705,8.05710373 29.8357552,8.05726141 29.8357552,8.05726141 L29.8352822,8.05726141 L29.8352822,8.05726141 L29.8255851,8.05710373 L29.806112,8.05694606 C29.7980705,8.05678838 29.7898714,8.05670954 29.781751,8.05670954 L24.612332,8.05670954 L28.3036929,4.36574274 Z M9.0016639,4.36582158 C9.41059751,3.95688797 9.95402905,3.73180498 10.5319917,3.73180498 C11.1097178,3.73180498 11.6529129,3.95688797 12.0616888,4.36582158 L15.7530498,8.05678838 L10.5836307,8.05678838 C10.5755892,8.05678838 10.56739,8.05694606 10.5592697,8.0570249 L10.5397967,8.05718257 L10.5300996,8.05734025 L10.5300996,8.05734025 L10.5297054,8.05734025 C10.5297054,8.05734025 10.5292324,8.05718257 10.5288382,8.05718257 C9.95079668,8.05678838 9.40854772,7.83273029 9.0016639,7.4256888 C8.15817427,6.58227801 8.15825311,5.20962656 9.0016639,4.36582158 Z" id="Shape" fill="#324A5E" fill-rule="nonzero"></path>
                    <path d="M0,25.6186224 C0,24.605473 0.821493776,23.7838216 1.83480083,23.7838216 L3.66960166,23.7838216 L20.1841494,23.7838216 L20.1841494,12.4879668 L20.1825726,12.48639 L14.656332,18.0123942 C14.2980913,18.3706349 13.8283734,18.549834 13.3590498,18.549834 C12.8894896,18.549834 12.4198506,18.3706349 12.0617676,18.0122365 C11.3452075,17.295834 11.3453651,16.1339959 12.0617676,15.4175145 L15.7525768,11.7267842 L15.7528133,11.7266266 L12.139029,11.7267842 L10.5302573,11.7269419 L10.5302573,11.7269419 L10.52939,11.7269419 C10.52939,11.7269419 10.5285228,11.7267842 10.5276556,11.7267842 C8.96981328,11.7261535 7.50641909,11.120361 6.40686307,10.0204108 C6.36476349,9.9783112 6.32526556,9.93487137 6.28482158,9.8919834 C5.76874689,9.34413693 5.37818257,8.72052697 5.11470539,8.05718257 L1.83480083,8.05718257 C0.821493776,8.05718257 0,8.87867635 0,9.8919834 L0,25.6186224 Z" id="Shape" fill="#FC6F58" fill-rule="nonzero"></path>
                    <path d="M3.66952282,27.4533444 L1.83480083,27.4533444 C0.821493776,27.4533444 0,26.6320083 0,25.6186224 L0,36.102917 C0,37.1163029 0.821493776,37.9377178 1.83480083,37.9377178 L20.1841494,37.9377178 L20.1841494,27.4533444 L3.66952282,27.4533444 Z" id="Shape" fill="#FC6F58" fill-rule="nonzero"></path>
                    <rect id="Rectangle" fill="#FFFFFF" x="0" y="22.6190476" width="20.1852376" height="4.52380952"></rect>
                    <rect id="Rectangle-Copy" fill="#F4F4F4" x="20.1852359" y="22.6190476" width="20.1852376" height="4.52380952"></rect>
                </g>
                <circle id="Oval-Copy" stroke="#D9D9D9" stroke-width="4" fill-rule="nonzero" cx="40" cy="40" r="40"></circle>
            </g>
        </g>
    </g>
</svg>