<?xml version="1.0" encoding="UTF-8"?>
<svg width="84px" height="84px" viewBox="0 0 84 84" version="1.1" xmlns="http://www.w3.org/2000/svg" xmlns:xlink="http://www.w3.org/1999/xlink">
    <!-- Generator: Sketch 47.1 (45422) - http://www.bohemiancoding.com/sketch -->
    <title>money@1x</title>
    <desc>Created with Sketch.</desc>
    <defs></defs>
    <g id="Page-1" stroke="none" stroke-width="1" fill="none" fill-rule="evenodd">
        <g id="Sacola---Forma-Pag-1" transform="translate(-138.000000, -87.000000)" fill-rule="nonzero">
            <g id="money" transform="translate(140.000000, 89.000000)">
                <circle id="Oval" stroke="#D9D9D9" stroke-width="4" fill="#F4F4F4" cx="40" cy="40" r="40"></circle>
                <path d="M41.4383838,79.9714478 C60.8948148,79.2835017 76.8129293,64.7019529 79.5738721,45.8440404 L57.2681481,23.4343434 L34.9274074,39.4981818 L28.0808081,41.773468 L17.3651178,53.8658586 L23.386936,59.9754882 L22.8969697,61.1302357 L41.4383838,79.9714478 Z" id="Shape" fill-opacity="0.15" fill="#000000"></path>
                <path d="M65.3529966,44.4331313 L57.4243771,23.6735354 C57.2915825,23.3257912 56.9015488,23.1523232 56.5548822,23.2848485 L15.0356902,39.1418182 C14.6882155,39.2746128 14.5139394,39.6638384 14.6470034,40.0113131 L22.5756229,60.7709091 C22.6782492,61.0394613 22.9338721,61.2043098 23.2048485,61.2043098 C23.2848485,61.2043098 23.3661953,61.1897643 23.4451178,61.159596 L64.9645791,45.3023569 C65.3117845,45.1695623 65.4857912,44.7803367 65.3529966,44.4331313 Z" id="Shape" fill="#DD523C"></path>
                <path d="M62.5292929,40.8142761 L57.7319865,28.2531987 C55.8397306,28.6637037 53.8917172,27.7923232 52.9362963,26.1082828 L19.6153535,38.8344781 C20.0258586,40.7264646 19.1544781,42.6747475 17.4704377,43.6301684 L22.2680135,56.1912458 C24.16,55.7807407 26.1082828,56.6521212 27.0637037,58.3361616 L60.3843771,45.6099663 C59.9741414,43.7177104 60.8452525,41.769697 62.5292929,40.8142761 Z" id="Shape" fill="#FFFFFF"></path>
                <path d="M62.2222222,30.4377104 L17.7777778,30.4377104 C17.4057912,30.4377104 17.1043771,30.7391246 17.1043771,31.1111111 L17.1043771,53.3333333 C17.1043771,53.7053199 17.4057912,54.006734 17.7777778,54.006734 L62.2222222,54.006734 C62.5942088,54.006734 62.8956229,53.7053199 62.8956229,53.3333333 L62.8956229,31.1111111 C62.8956229,30.7391246 62.5942088,30.4377104 62.2222222,30.4377104 Z" id="Shape" fill="#C0392B"></path>
                <path d="M39.910303,30.4377104 L17.7777778,30.4377104 C17.4057912,30.4377104 17.1043771,30.7391246 17.1043771,31.1111111 L17.1043771,53.3333333 C17.1043771,53.7053199 17.4057912,54.006734 17.7777778,54.006734 L39.910303,54.006734 L39.910303,30.4377104 L39.910303,30.4377104 Z" id="Shape" fill="#F1543F"></path>
                <path d="M22.076229,31.7845118 C21.7845118,33.6985859 20.2755556,35.2075421 18.3614815,35.4992593 L18.3614815,48.9451852 C20.2755556,49.2369024 21.7845118,50.7458586 22.076229,52.6599327 L57.7443771,52.6599327 C58.0360943,50.7458586 59.5450505,49.2369024 61.4591246,48.9451852 L61.4591246,35.4992593 C59.5450505,35.2075421 58.0360943,33.6985859 57.7443771,31.7845118 L22.076229,31.7845118 Z" id="Shape" fill="#FFFFFF"></path>
                <path d="M57.7443771,31.7845118 L39.910303,31.7845118 L39.910303,52.6599327 L57.7443771,52.6599327 C58.0360943,50.7458586 59.5450505,49.2369024 61.4591246,48.9451852 L61.4591246,35.4992593 C59.5450505,35.2075421 58.0360943,33.6985859 57.7443771,31.7845118 Z" id="Shape" fill="#F4F4F4"></path>
                <ellipse id="Oval" fill="#F1543F" cx="40" cy="42.2222222" rx="5.38720539" ry="8.08080808"></ellipse>
                <path d="M40,34.1414141 C39.9698316,34.1414141 39.940202,34.1441077 39.910303,34.1449158 L39.910303,50.299798 C39.940202,50.3006061 39.9698316,50.3032997 40,50.3032997 C42.9753535,50.3032997 45.3872054,46.6855219 45.3872054,42.2224916 C45.3872054,37.7594613 42.9753535,34.1414141 40,34.1414141 Z" id="Shape" fill="#C0392B"></path>
                <circle id="Oval-Copy" stroke="#D9D9D9" stroke-width="4" cx="40" cy="40" r="40"></circle>
            </g>
        </g>
    </g>
</svg>